USFL
nRows=223
nColumns=2
inDegrees=yes
endheader
time	tib_ant_r	
3.49294	 87.703893	
3.52621	 87.712042	
3.55948	 87.711547	
3.59274	 87.695797	
3.62601	 87.694595	
3.65927	 87.705015	
3.69254	 87.678367	
3.72581	 87.718944	
3.75907	 87.734149	
3.79234	 87.742091	
3.8256	 87.714197	
3.85887	 87.702222	
3.89214	 87.718300	
3.9254	 87.692574	
3.95867	 87.680563	
3.99194	 87.696699	
4.0252	 87.701857	
4.05847	 87.683976	
4.09173	 87.670286	
4.125	 87.677132	
4.15827	 87.743657	
4.19153	 87.744455	
4.2248	 87.734294	
4.25806	 87.746293	
4.29133	 87.717576	
4.3246	 87.705404	
4.35786	 87.723721	
4.39113	 87.722415	
4.4244	 87.702853	
4.45766	 87.714427	
4.49093	 87.716538	
4.52419	 87.705056	
4.55746	 87.759678	
4.59073	 87.733387	
4.62399	 87.748086	
4.65726	 87.734759	
4.69052	 87.714162	
4.72379	 87.703274	
4.75706	 87.620425	
4.79032	 87.557849	
4.82359	 87.572715	
4.85685	 87.508606	
4.89012	 87.439373	
4.92339	 87.442671	
4.95665	 87.293553	
4.98992	 87.351181	
5.02319	 87.206463	
5.05645	 87.212336	
5.08972	 87.222017	
5.12298	 87.150716	
5.15625	 87.117851	
5.18952	 87.125559	
5.22278	 87.014357	
5.25605	 87.076656	
5.28931	 87.071798	
5.32258	 87.132324	
5.35585	 87.271188	
5.38911	 87.060390	
5.42238	 87.072604	
5.45565	 87.155809	
5.48891	 86.938678	
5.52218	 86.923467	
5.55544	 86.948366	
5.58871	 86.710071	
5.62198	 86.766272	
5.65524	 86.716369	
5.68851	 86.846799	
5.72177	 86.888094	
5.75504	 86.793722	
5.78831	 87.215446	
5.82157	 87.247000	
5.85484	 87.110875	
5.8881	 87.622335	
5.92137	 88.031809	
5.95464	 58.271694	
5.9879	 58.411481	
6.02117	 58.547113	
6.05444	 58.602774	
6.0877	 58.635273	
6.12097	 58.687194	
6.15423	 58.683689	
6.1875	 58.521127	
6.22077	 58.332074	
6.25403	 58.222645	
6.2873	 58.007402	
6.32056	 58.230437	
6.35383	 58.058834	
6.3871	 57.898788	
6.42036	 57.853376	
6.45363	 57.676219	
6.4869	 57.387535	
6.52016	 57.115192	
6.55343	 56.568155	
6.58669	 56.502145	
6.61996	 56.376331	
6.65323	 56.421343	
6.68649	 56.142577	
6.71976	 55.939357	
6.75302	 55.944626	
6.78629	 55.936916	
6.81956	 55.952387	
6.85282	 56.084491	
6.88609	 55.984414	
6.91935	 55.959829	
6.95262	 56.036307	
6.98589	 56.056154	
7.01915	 55.911798	
7.05242	 56.059717	
7.08569	 55.848168	
7.11895	 55.906668	
7.15222	 55.717721	
7.18548	 55.714516	
7.21875	 55.601440	
7.25202	 55.810566	
7.28528	 55.818639	
7.31855	 55.725064	
7.35181	 55.565360	
7.38508	 55.460764	
7.41835	 55.437785	
7.45161	 55.433594	
7.48488	 55.412962	
7.51815	 55.330580	
7.55141	 55.288719	
7.58468	 55.219587	
7.61794	 55.210221	
7.65121	 55.203298	
7.68448	 55.144206	
7.71774	 55.079375	
7.75101	 55.078810	
7.78427	 55.044088	
7.81754	 55.041600	
7.85081	 54.964108	
7.88407	 54.881312	
7.91734	 54.797539	
7.9506	 54.783857	
7.98387	 54.822593	
8.01714	 54.863874	
8.0504	 54.857105	
8.08367	 54.872385	
8.11694	 54.860718	
8.1502	 54.853852	
8.18347	 54.756131	
8.21673	 54.754612	
8.25	 54.747251	
8.28327	 54.739525	
8.31653	 54.757638	
8.3498	 54.698777	
8.38306	 54.665210	
8.41633	 54.669546	
8.4496	 54.644729	
8.48286	 54.616853	
8.51613	 54.639598	
8.5494	 54.588995	
8.58266	 54.682434	
8.61593	 54.709725	
8.64919	 54.715220	
8.68246	 54.749458	
8.71573	 54.727545	
8.74899	 54.721109	
8.78226	 54.716632	
8.81552	 54.683588	
8.84879	 54.642458	
8.88206	 54.585586	
8.91532	 54.627657	
8.94859	 54.695413	
8.98185	 54.879100	
9.01512	 54.926883	
9.04839	 54.943211	
9.08165	 55.012825	
9.11492	 54.982827	
9.14819	 54.989846	
9.18145	 55.027952	
9.21472	 54.973177	
9.24798	 55.121163	
9.28125	 55.159853	
9.31452	 55.196640	
9.34778	 55.276124	
9.38105	 55.276624	
9.41431	 55.248701	
9.44758	 55.217108	
9.48085	 55.298882	
9.51411	 55.322909	
9.54738	 55.339624	
9.58065	 55.332247	
9.61391	 55.356454	
9.64718	 55.297954	
9.68044	 55.315710	
9.71371	 55.351360	
9.74698	 55.373904	
9.78024	 55.395531	
9.81351	 55.409271	
9.84677	 55.374002	
9.88004	 55.371941	
9.91331	 55.379084	
9.94657	 55.360190	
9.97984	 55.366095	
10.0131	 55.395822	
10.0464	 55.409121	
10.0796	 55.417589	
10.1129	 55.397504	
10.1462	 55.407476	
10.1794	 55.376512	
10.2127	 55.367904	
10.246	 55.371519	
10.2792	 55.312272	
10.3125	 55.329499	
10.3458	 55.391668	
10.379	 55.428293	
10.4123	 55.500371	
10.4456	 55.349973	
10.4788	 55.303930	
10.5121	 55.453067	
10.5454	 55.278328	
10.5786	 55.290405	
10.6119	 55.458639	
10.6452	 55.507684	
10.6784	 55.663545	
10.7117	 55.679197	
10.745	 55.674558	
10.7782	 55.747498	
10.8115	 55.752580	
10.8448	 55.765218	
10.878	 55.813304	
